<?xml version="1.0" encoding="UTF-8" standalone="no"?>
<!-- Created with Inkscape (http://www.inkscape.org/) -->

<svg
   xmlns:dc="http://purl.org/dc/elements/1.1/"
   xmlns:cc="http://creativecommons.org/ns#"
   xmlns:rdf="http://www.w3.org/1999/02/22-rdf-syntax-ns#"
   xmlns:svg="http://www.w3.org/2000/svg"
   xmlns="http://www.w3.org/2000/svg"
   xmlns:sodipodi="http://sodipodi.sourceforge.net/DTD/sodipodi-0.dtd"
   xmlns:inkscape="http://www.inkscape.org/namespaces/inkscape"
   width="118.91771"
   height="141.6109"
   id="svg3002"
   version="1.1"
   inkscape:version="0.48.5 r10040"
   sodipodi:docname="logo.svg">
  <defs
     id="defs3004" />
  <sodipodi:namedview
     id="base"
     pagecolor="#ffffff"
     bordercolor="#666666"
     borderopacity="1.0"
     inkscape:pageopacity="0.0"
     inkscape:pageshadow="2"
     inkscape:zoom="5.6"
     inkscape:cx="29.528209"
     inkscape:cy="60.288673"
     inkscape:document-units="mm"
     inkscape:current-layer="layer1"
     showgrid="false"
     inkscape:window-width="1280"
     inkscape:window-height="985"
     inkscape:window-x="1280"
     inkscape:window-y="0"
     inkscape:window-maximized="1"
     units="mm"
     fit-margin-top="10"
     fit-margin-left="10"
     fit-margin-right="10"
     fit-margin-bottom="10">
    <inkscape:grid
       type="xygrid"
       id="grid3010"
       empspacing="5"
       visible="true"
       enabled="true"
       snapvisiblegridlinesonly="true"
       units="mm"
       spacingx="1mm"
       spacingy="1mm"
       originx="-70.71006mm"
       originy="-140.75621mm" />
  </sodipodi:namedview>
  <metadata
     id="metadata3007">
    <rdf:RDF>
      <cc:Work
         rdf:about="">
        <dc:format>image/svg+xml</dc:format>
        <dc:type
           rdf:resource="http://purl.org/dc/dcmitype/StillImage" />
        <dc:title />
      </cc:Work>
    </rdf:RDF>
  </metadata>
  <g
     inkscape:label="Layer 1"
     inkscape:groupmode="layer"
     id="layer1"
     transform="translate(-250.54745,-412.00882)">
    <path
       inkscape:connector-curvature="0"
       style="font-size:44.33257294px;font-style:normal;font-variant:normal;font-weight:bold;font-stretch:normal;line-height:125%;letter-spacing:0px;word-spacing:0px;fill:#000000;fill-opacity:1;stroke:none;font-family:Arial;-inkscape-font-specification:Arial Bold"
       d="m 333.23049,451.01775 c -6.33409,6e-5 -11.72423,1.64205 -16.03125,4.9375 -4.39067,3.35958 -6.92226,8.85868 -7.71875,16.25 l -0.125,1.09375 1.09375,0.0937 13.03125,1.3125 1.125,0.0937 0.0625,-1.09375 c 0.23937,-3.68016 1.15697,-6.16239 2.5,-7.53125 1.40263,-1.42959 3.23246,-2.1562 5.75,-2.15625 2.55904,5e-5 4.35785,0.70635 5.6875,2.0625 l 0.0312,0 0,0.0312 c 1.34335,1.31711 2.06248,3.21221 2.0625,5.9375 -2e-5,2.39559 -0.81932,4.83833 -2.53125,7.40625 -1.18418,1.73495 -4.80211,5.51731 -10.6875,11 -7.36662,6.83599 -12.34574,12.3162 -14.9375,16.625 -2.56123,4.22601 -4.07979,8.74564 -4.59375,13.5 l -0.15625,1.1875 1.21875,0 45.90625,0 1.0625,0 0,-1.0625 0,-11.09375 0,-1.09375 0,-1.0625 -1.0625,0 -1.09375,0 -22.8125,0 c 0.44189,-0.61245 0.78608,-1.2064 1.34375,-1.84375 1.04137,-1.15706 3.68833,-3.6857 7.8125,-7.46875 4.15132,-3.80799 7.02446,-6.72422 8.6875,-8.84375 2.43396,-3.09778 4.23797,-6.0865 5.375,-8.96875 0.003,-0.008 -0.003,-0.0231 0,-0.0312 1.16143,-2.91394 1.74996,-5.9917 1.75,-9.1875 -4e-5,-5.66119 -2.07909,-10.52613 -6.125,-14.34375 -4.08024,-3.8498 -9.69028,-5.74994 -16.625,-5.75 z"
       id="two" />
    <path
       id="scad"
       style="font-size:5.46282101px;font-style:normal;font-weight:normal;line-height:125%;letter-spacing:0px;word-spacing:0px;fill:#ff0000;fill-opacity:1;stroke:none;font-family:Sans"
       d="m 351.38664,513.08422 0,-3.47963 1.05652,0 0,8.9345 -1.05652,0 0,-0.96466 c -0.22203,0.3828 -0.50338,0.66799 -0.84408,0.85557 -0.33687,0.18383 -0.74262,0.2756 -1.2173,0.2756 -0.77706,0 -1.41061,-0.31007 -1.90057,-0.9302 -0.48616,-0.62014 -0.72924,-1.43547 -0.72924,-2.44608 0,-1.01058 0.24308,-1.82594 0.72924,-2.44608 0.48996,-0.62011 1.12351,-0.93018 1.90057,-0.93018 0.47468,0 0.88043,0.0939 1.2173,0.28135 0.3407,0.18384 0.62205,0.46702 0.84408,0.84981 m -3.60022,2.2451 c 0,0.77709 0.15886,1.38764 0.47659,1.83169 0.32154,0.44022 0.76176,0.66033 1.32065,0.66033 0.55887,0 0.99909,-0.22011 1.32065,-0.66033 0.32155,-0.44405 0.48233,-1.0546 0.48233,-1.83169 0,-0.77706 -0.16081,-1.38572 -0.48233,-1.82594 -0.32156,-0.44403 -0.76178,-0.66605 -1.32065,-0.66607 -0.55889,2e-5 -0.99911,0.22204 -1.32065,0.66607 -0.31773,0.44022 -0.47659,1.04888 -0.47659,1.82594 m -4.92085,-0.023 c -0.85366,2e-5 -1.44508,0.0977 -1.77428,0.29285 -0.32921,0.19524 -0.4938,0.52826 -0.4938,0.99911 0,0.37514 0.12249,0.67371 0.36748,0.89574 0.24883,0.21819 0.58567,0.32729 1.01058,0.32729 0.58568,0 1.05461,-0.20666 1.40678,-0.62014 0.35601,-0.41725 0.53401,-0.97037 0.53401,-1.65941 l 0,-0.23544 -1.05077,0 m 2.10729,-0.43638 0,3.66912 -1.05652,0 0,-0.97614 c -0.24116,0.39045 -0.54167,0.67947 -0.90149,0.86705 -0.35983,0.18383 -0.80005,0.2756 -1.32065,0.2756 -0.65841,0 -1.18283,-0.18384 -1.5733,-0.55123 -0.38662,-0.37131 -0.57993,-0.86704 -0.57993,-1.48716 0,-0.72348 0.24116,-1.26898 0.72349,-1.63646 0.48615,-0.36748 1.20964,-0.55123 2.17045,-0.55123 l 1.48143,0 0,-0.10333 c 0,-0.48615 -0.1608,-0.86129 -0.48232,-1.12542 -0.31773,-0.26797 -0.76559,-0.40195 -1.34362,-0.40195 -0.36748,0 -0.7254,0.0441 -1.07374,0.13218 -0.34837,0.088 -0.6833,0.2201 -1.00486,0.39619 l 0,-0.97614 c 0.38664,-0.14918 0.76178,-0.2603 1.12543,-0.33304 0.36367,-0.0766 0.71776,-0.11473 1.06227,-0.11473 0.9302,0 1.62497,0.24116 2.08432,0.72348 0.45935,0.48232 0.68904,1.21347 0.68904,2.19342 m -6.87888,-2.5152 0,0.98764 c -0.29857,-0.16468 -0.59908,-0.2871 -0.90148,-0.3675 -0.29858,-0.0842 -0.601,-0.12636 -0.90722,-0.12636 -0.68523,0 -1.2173,0.21819 -1.59627,0.65458 -0.37898,0.43257 -0.56845,1.04121 -0.56845,1.82594 0,0.78475 0.18943,1.3953 0.56845,1.83169 0.37897,0.43257 0.91104,0.64885 1.59627,0.64885 0.30622,0 0.60864,-0.0403 0.90722,-0.12055 0.3024,-0.0842 0.60291,-0.20859 0.90148,-0.37323 l 0,0.97614 c -0.29474,0.13777 -0.60099,0.24117 -0.9187,0.31007 -0.3139,0.0689 -0.64886,0.10333 -1.00484,0.10333 -0.96848,0 -1.7379,-0.30432 -2.30826,-0.91298 -0.57039,-0.60864 -0.85557,-1.42973 -0.85557,-2.4633 0,-1.04886 0.28709,-1.87377 0.86129,-2.47477 0.57803,-0.601 1.36851,-0.90149 2.37145,-0.90149 0.32537,0 0.64308,0.0344 0.95315,0.10333 0.31006,0.065 0.61055,0.16468 0.90148,0.29857 m -6.66066,-0.0574 0,0.99911 c -0.29859,-0.15305 -0.60866,-0.26796 -0.9302,-0.34453 -0.32157,-0.0766 -0.65458,-0.11474 -0.99911,-0.11495 -0.52443,2e-5 -0.91871,0.0805 -1.18284,0.24118 -0.2603,0.1608 -0.39045,0.40194 -0.39045,0.72349 0,0.24499 0.0939,0.4383 0.28135,0.57992 0.1875,0.13777 0.56462,0.26988 1.13118,0.39619 l 0.36173,0.0805 c 0.75028,0.16081 1.28238,0.38854 1.59627,0.6833 0.31771,0.29093 0.47658,0.6986 0.47658,1.22303 0,0.59716 -0.23733,1.06993 -0.71201,1.41827 -0.47083,0.34834 -1.11968,0.52251 -1.94651,0.52251 -0.34453,0 -0.70435,-0.0344 -1.07949,-0.10333 -0.37131,-0.065 -0.7637,-0.16467 -1.17711,-0.29859 l 0,-1.09096 c 0.39047,0.20299 0.77517,0.356 1.15414,0.45935 0.37897,0.0995 0.75412,0.14939 1.12543,0.14939 0.49762,0 0.88043,-0.0842 1.14839,-0.25263 0.26794,-0.17221 0.40192,-0.41344 0.40192,-0.72348 0,-0.2871 -0.0975,-0.50721 -0.29282,-0.66035 -0.19137,-0.15305 -0.61441,-0.30049 -1.26899,-0.44211 l -0.36748,-0.0861 c -0.65457,-0.13777 -1.12734,-0.34834 -1.41827,-0.63161 -0.29091,-0.2871 -0.43639,-0.67946 -0.43639,-1.17709 0,-0.60483 0.21441,-1.07182 0.64311,-1.40105 0.42872,-0.3292 1.03738,-0.4938 1.82594,-0.4938 0.39045,0 0.75795,0.0286 1.10246,0.0861 0.34451,0.0575 0.66224,0.14358 0.95317,0.25838"
       inkscape:label="#path4953"
       inkscape:connector-curvature="0" />
    <path
       inkscape:connector-curvature="0"
       id="ink"
       style="font-size:7.4525156px;font-style:normal;font-variant:normal;font-weight:normal;font-stretch:normal;line-height:125%;letter-spacing:0px;word-spacing:0px;fill:#ff0000;fill-opacity:0.98986493;stroke:none;font-family:Musica;-inkscape-font-specification:Musica"
       d="m 323.22786,484.08037 c -0.0599,0.5608 -0.41943,0.97671 -1.07859,1.24767 -0.51122,0.21327 -1.09153,0.31148 -1.74097,0.29464 0.17572,0.22356 0.30336,0.47882 0.38303,0.76567 0.20609,0.72577 0.41038,1.09947 0.61291,1.1211 0.20249,0.0216 0.43909,-0.0791 0.70977,-0.30235 0.27588,-0.22263 0.4216,-0.33311 0.43718,-0.33145 0.0415,0.004 0.0925,0.0441 0.15272,0.11871 0.0656,0.0752 0.0962,0.13108 0.0923,0.16746 -0.003,0.0312 -0.0225,0.0684 -0.0591,0.11189 -0.65772,0.74906 -1.25399,1.09502 -1.78883,1.03791 -0.34791,-0.0372 -0.63911,-0.43326 -0.8736,-1.18832 -0.27252,-0.89043 -0.48291,-1.40394 -0.63114,-1.54057 -0.0288,-0.0247 -0.11278,-0.0751 -0.25151,-0.15286 l -0.98973,2.40733 c -0.0418,0.0953 -0.10399,0.13849 -0.18725,0.1296 -0.39464,-0.0421 -0.58308,-0.14627 -0.56533,-0.31246 0.003,-0.0259 0.007,-0.0464 0.0152,-0.0614 l 2.82274,-6.88317 c 0.0639,-0.15598 0.10237,-0.29367 0.11512,-0.41311 0.0205,-0.19221 -0.062,-0.32962 -0.24743,-0.41244 -0.18501,-0.0879 -0.27544,-0.15022 -0.27155,-0.18661 0.0172,-0.16096 0.099,-0.2625 0.24534,-0.30466 0.15743,0.002 0.38665,-0.006 0.68765,-0.0212 0.0583,-0.005 0.23224,-0.0356 0.52208,-0.0938 0.11819,-0.0242 0.18242,-0.0357 0.19269,-0.0346 0.0987,0.0105 0.14375,0.0548 0.13543,0.13267 -0.007,0.0674 -0.0284,0.14397 -0.0639,0.22951 l -1.89917,4.57904 c 0.95328,-0.81202 1.80639,-1.17783 2.55933,-1.09742 0.2856,0.0305 0.5193,0.12906 0.70109,0.29545 0.20555,0.18995 0.29362,0.42264 0.26423,0.69784 m -0.95767,0.18921 c 0.0321,-0.30117 -0.11528,-0.46921 -0.44248,-0.50418 -0.35829,-0.0382 -0.79489,0.0911 -1.30975,0.38795 -0.40847,0.23474 -0.7827,0.51775 -1.12268,0.84908 0.22977,0.0613 0.47708,0.10616 0.7419,0.13444 0.45697,0.0488 0.88276,0.0207 1.27734,-0.0842 0.52995,-0.143 0.81516,-0.40398 0.85567,-0.78306 m -5.20681,1.98057 c -0.003,0.0312 -0.0219,0.0633 -0.0575,0.0963 -0.2992,0.29367 -0.64922,0.57141 -1.05006,0.83321 -0.52508,0.34306 -0.92263,0.50019 -1.19265,0.47135 -0.29078,-0.0311 -0.42231,-0.17651 -0.39459,-0.43604 0.0189,-0.17659 0.11713,-0.4339 0.29504,-0.77204 l 1.31628,-2.51425 c 0.0789,-0.14918 0.1257,-0.2912 0.14012,-0.4262 0.0244,-0.22847 -0.0569,-0.3527 -0.2438,-0.37268 -0.48294,-0.0516 -1.09276,0.29822 -1.82945,1.04933 -0.58395,0.59938 -1.04163,1.1965 -1.37299,1.79134 -0.1198,0.28656 -0.32921,0.69748 -0.62796,1.23278 -0.0807,0.11737 -0.16786,0.17106 -0.26142,0.16107 -0.0987,-0.0105 -0.19945,-0.0501 -0.30241,-0.11889 -0.11737,-0.0807 -0.17134,-0.16529 -0.1619,-0.25363 0.004,-0.0415 0.0201,-0.087 0.0462,-0.13686 l 1.20564,-2.28975 c 0.3358,-0.63638 0.5184,-1.09219 0.54779,-1.36741 0.0177,-0.1661 -0.028,-0.25506 -0.13691,-0.2667 -0.18687,-0.02 -0.4009,0.11479 -0.64186,0.40411 -0.23576,0.28995 -0.36927,0.43325 -0.40044,0.42992 -0.19221,-0.0205 -0.28099,-0.0982 -0.26657,-0.23327 0.003,-0.0259 0.01,-0.049 0.0225,-0.0686 0.165,-0.26598 0.40771,-0.5473 0.72825,-0.84395 0.38948,-0.35229 0.69847,-0.51623 0.92697,-0.49185 0.35829,0.0383 0.51109,0.30406 0.4584,0.79736 -0.0255,0.23888 -0.11329,0.56824 -0.26313,0.98814 1.06001,-1.07372 1.99764,-1.56704 2.8129,-1.47998 0.54523,0.0582 0.79067,0.34178 0.73634,0.85066 -0.0144,0.13506 -0.081,0.31697 -0.20009,0.54583 l -1.29737,2.48478 c -0.0927,0.17909 -0.14493,0.32328 -0.15658,0.43232 -0.009,0.083 0.0126,0.12734 0.0646,0.13289 0.14534,0.0155 0.39451,-0.12867 0.74731,-0.43225 0.35853,-0.30835 0.56117,-0.46001 0.60791,-0.45502 0.031,0.003 0.072,0.0393 0.12251,0.10769 0.0556,0.0689 0.0819,0.11915 0.0786,0.15019 m -5.51032,-6.74889 c -0.0161,0.15069 -0.0845,0.27458 -0.20513,0.37198 -0.12003,0.0922 -0.25549,0.13032 -0.40608,0.11424 -0.15069,-0.0161 -0.27486,-0.082 -0.37281,-0.19742 -0.0975,-0.12061 -0.13803,-0.25632 -0.12195,-0.40691 0.0161,-0.15047 0.0845,-0.27457 0.20513,-0.37199 0.12058,-0.0973 0.25632,-0.13803 0.40692,-0.12194 0.15069,0.0161 0.27458,0.0845 0.37198,0.20512 0.0975,0.12082 0.13802,0.25634 0.12194,0.40692 m -0.82278,6.08049 c -0.002,0.0214 -0.016,0.0481 -0.0402,0.0823 -0.2334,0.31645 -0.56199,0.61486 -0.98581,0.8952 -0.48538,0.31581 -0.89166,0.45624 -1.21879,0.4213 -0.37388,-0.0399 -0.54307,-0.22599 -0.50757,-0.55839 0.0194,-0.18172 0.0958,-0.40466 0.22903,-0.6688 l 1.33735,-2.63806 c 0.08,-0.15945 0.12515,-0.28598 0.13513,-0.37945 0.0105,-0.0987 -0.0257,-0.15235 -0.10878,-0.16121 -0.1143,-0.0122 -0.28464,0.0588 -0.51121,0.21324 -0.22135,0.15496 -0.33983,0.23157 -0.35541,0.22988 -0.0364,-0.004 -0.08,-0.0373 -0.13106,-0.10059 -0.0505,-0.0684 -0.0737,-0.12087 -0.0698,-0.15705 0.004,-0.0364 0.023,-0.0737 0.0591,-0.11189 0.20043,-0.20441 0.46543,-0.39931 0.79509,-0.58471 0.38491,-0.21097 0.69161,-0.30425 0.92009,-0.27985 0.31674,0.0338 0.4596,0.19608 0.42856,0.48693 -0.025,0.23367 -0.14065,0.5548 -0.34711,0.96341 l -1.20949,2.39962 c -0.0933,0.18444 -0.14383,0.3129 -0.15159,0.38559 -0.0116,0.10895 0.0397,0.16964 0.15398,0.18184 0.2181,0.0233 0.49807,-0.1148 0.83993,-0.4145 0.34241,-0.30479 0.51881,-0.45663 0.52922,-0.45554 0.031,0.003 0.0746,0.0396 0.13021,0.10851 0.0562,0.0638 0.0827,0.11123 0.0794,0.14248"
       inkscape:label="#path4960" />
    <path
       style="fill:#000000;fill-opacity:1;stroke:none"
       d="m 278.92592,469.54825 c -0.46252,4.18955 -3.16096,9.39373 -6.91204,11.36909 -3.75108,1.9753 -7.01752,8.2117 -6.66585,20.82449 l 18.3479,-0.0347 0.23448,-40.31764 -5.1367,0.0917 c 0,0 0.59488,3.87813 0.13236,8.06769 z"
       id="edge"
       inkscape:connector-curvature="0"
       sodipodi:nodetypes="zzccccz"
       inkscape:label="#path5064" />
  </g>
</svg>
